<svg xmlns="http://www.w3.org/2000/svg" xmlns:xlink="http://www.w3.org/1999/xlink" version="1.1" x="0px" y="0px" viewBox="0 0 100 125" style="enable-background:new 0 0 100 100;" xml:space="preserve"><g><g><path d="M59.5,32.3h-2.4c-0.6,0-1.1-0.5-1.1-1.1v-5.3c0-0.6,0.5-1.1,1.1-1.1h2.4c2,0,3.7,1.7,3.7,3.7    C63.2,30.6,61.5,32.3,59.5,32.3z M58.2,30.1h1.3c0.9,0,1.6-0.7,1.6-1.6c0-0.9-0.7-1.6-1.6-1.6h-1.3V30.1z"/></g><g><path d="M59.5,37.6h-2.4c-0.6,0-1.1-0.5-1.1-1.1v-5.3c0-0.6,0.5-1.1,1.1-1.1h2.4c2,0,3.7,1.7,3.7,3.7    C63.2,35.9,61.5,37.6,59.5,37.6z M58.2,35.4h1.3c0.9,0,1.6-0.7,1.6-1.6c0-0.9-0.7-1.6-1.6-1.6h-1.3V35.4z"/></g><g><path d="M72.8,37.6h-5.1c-0.6,0-1.1-0.5-1.1-1.1V25.9c0-0.6,0.5-1.1,1.1-1.1c0.6,0,1.1,0.5,1.1,1.1v9.6h4    c0.6,0,1.1,0.5,1.1,1.1C73.8,37.1,73.4,37.6,72.8,37.6z"/></g><g><path d="M79.6,37.6h-0.4c-2.2,0-4-1.8-4-4v-4.7c0-2.2,1.8-4,4-4h0.4c2.2,0,4,1.8,4,4v4.7    C83.6,35.8,81.8,37.6,79.6,37.6z M79.2,27c-1.1,0-1.9,0.9-1.9,1.9v4.7c0,1.1,0.9,1.9,1.9,1.9h0.4c1.1,0,1.9-0.9,1.9-1.9v-4.7    c0-1.1-0.9-1.9-1.9-1.9H79.2z"/></g><g><path d="M91,37.6h-0.7c-2.1,0-3.9-1.7-3.9-3.9v-4.9c0-2.1,1.7-3.9,3.9-3.9H91c1.8,0,3.3,1.2,3.8,2.9    c0.1,0.6-0.2,1.1-0.8,1.3c-0.6,0.1-1.1-0.2-1.3-0.8C92.5,27.5,91.8,27,91,27h-0.7c-1,0-1.8,0.8-1.8,1.8v4.9c0,1,0.8,1.8,1.8,1.8    H91c1,0,1.8-0.8,1.8-1.8V33H92c-0.6,0-1.1-0.5-1.1-1.1c0-0.6,0.5-1.1,1.1-1.1h1.8c0.6,0,1.1,0.5,1.1,1.1v1.7    C94.9,35.8,93.1,37.6,91,37.6z"/></g><path d="M98.9,93.5H1.1c-0.6,0-1.1-0.5-1.1-1.1s0.5-1.1,1.1-1.1h96.4l-7.6-21.3h-8.5c-0.6,0-1.1-0.5-1.1-1.1   c0-0.6,0.5-1.1,1.1-1.1h9.2c0.4,0,0.8,0.3,1,0.7l8.3,23.4c0.1,0.3,0.1,0.7-0.1,1C99.6,93.4,99.3,93.5,98.9,93.5z"/><g><g><g><g><path d="M50.7,45.1c-0.2,0-0.4-0.1-0.6-0.2c-4.5-2.9-10.6-6.3-10.7-6.3c-0.5-0.3-0.7-0.9-0.4-1.4       c0.3-0.5,0.9-0.7,1.4-0.4c0.1,0,6.3,3.4,10.9,6.4c0.5,0.3,0.6,1,0.3,1.5C51.4,44.9,51,45.1,50.7,45.1z"/></g></g></g><g><g><g><path d="M78.1,77.7H59.6c-0.6,0-1.1-0.5-1.1-1.1c0-0.6,0.5-1.1,1.1-1.1h17.2l14.6-27.8       c0.4-0.7,0.3-1.5-0.1-2.2c-0.4-0.7-1.1-1.1-1.9-1.1H58c-0.8,0-1.5,0.4-1.9,1.1L37.3,77.7H9.1c-4.9,0-8.8-4-8.8-8.8V55.4       c0-2.6,0.7-5,1.9-7c0.7-1.1,1.6-2.1,2.6-2.9c4-3.2,13.8-8.5,14.2-8.8c0.5-0.3,1.2-0.1,1.4,0.4c0.3,0.5,0.1,1.2-0.4,1.4       c-0.1,0.1-10.1,5.5-13.9,8.5c-0.8,0.6-1.5,1.5-2.1,2.4c-1,1.7-1.6,3.7-1.6,5.8v13.5c0,3.7,3,6.7,6.7,6.7h27l18.1-31.1       c0.8-1.3,2.2-2.2,3.8-2.2h31.4c1.5,0,2.9,0.8,3.7,2.1c0.8,1.3,0.8,2.9,0.1,4.3L78.1,77.7z"/></g></g></g></g><g><path d="M29.7,44.1c-8.5,0-15.3-8.4-15.3-18.8c0-10.4,6.9-18.8,15.3-18.8c8.5,0,15.3,8.4,15.3,18.8    C45,35.6,38.2,44.1,29.7,44.1z M29.7,8.6c-7.3,0-13.2,7.5-13.2,16.7c0,9.2,5.9,16.7,13.2,16.7c7.3,0,13.2-7.5,13.2-16.7    C42.9,16.1,37,8.6,29.7,8.6z"/></g></g><text x="0" y="115" fill="#000000" font-size="5px" font-weight="bold" font-family="'Helvetica Neue', Helvetica, Arial-Unicode, Arial, Sans-serif">Created by N.Style</text><text x="0" y="120" fill="#000000" font-size="5px" font-weight="bold" font-family="'Helvetica Neue', Helvetica, Arial-Unicode, Arial, Sans-serif">from the Noun Project</text></svg>